<?xml version="1.0" encoding="UTF-8"?>
<svg xmlns="http://www.w3.org/2000/svg" version="1.1" viewBox="0 0 36 36">
  <defs>
    <style>
      .cls-1 {
        fill: none;
        stroke: #000;
        stroke-width: 2px;
      }

      .cls-2 {
        fill-rule: evenodd;
      }
    </style>
  </defs>
  <!-- Generator: Adobe Illustrator 28.7.10, SVG Export Plug-In . SVG Version: 1.2.0 Build 236)  -->
  <g>
    <g id="Layer_1">
      <path class="cls-2" d="M17.1,26.2h-1.6c-.4,0-.6.5-.3.8l2.5,2.5c.2.2.5.2.6,0l2.5-2.5c.3-.3,0-.8-.3-.8h-1.6v-9.1c.3.3.5.7.8,1,.8.8,1.8,1.5,2.8,1.9.8.3,1.7.6,2.6.7v1.6c0,.4.5.6.8.3l2.5-2.5c.2-.2.2-.5,0-.6l-2.5-2.5c-.3-.3-.8,0-.8.3h0v1.5c-.6,0-1.3-.2-1.9-.5-.8-.4-1.6-.9-2.3-1.5s-1.2-1.4-1.5-2.3c-.4-.9-.6-1.8-.6-2.8v-4.4c0-.5-.4-.9-.9-.9s-.9.4-.9.9v18.9h0Z"/>
      <rect class="cls-1" x="3" y="3" width="30" height="30" rx="3" ry="3"/>
    </g>
  </g>
</svg>