<?xml version="1.0" encoding="UTF-8"?>
<svg xmlns="http://www.w3.org/2000/svg" version="1.1" viewBox="0 0 36 36">
  <defs>
    <style>
      .cls-1 {
        fill: none;
        stroke: #000;
        stroke-width: 2px;
      }

      .cls-2 {
        fill-rule: evenodd;
      }
    </style>
  </defs>
  <!-- Generator: Adobe Illustrator 28.7.10, SVG Export Plug-In . SVG Version: 1.2.0 Build 236)  -->
  <g>
    <g id="Layer_1">
      <path class="cls-2" d="M15.4,14.1l1.3,3.6h-2.9l1.6-3.6ZM17.3,19.5l1.2,3.3c.1.4.5.6.8.6h.3c.5-.2.7-.7.5-1.1l-3.9-10.7c-.1-.3-.4-.6-.8-.6s-.7.2-.8.5l-4.8,10.7c-.2.4,0,1,.4,1.2s1,0,1.2-.4l1.5-3.4h4.4Z"/>
      <path class="cls-2" d="M23.3,10.9c-.5,0-.9.4-.9.9v10.7c0,.5.4.9.9.9s.9-.4.9-.9v-10.7c0-.5-.4-.9-.9-.9Z"/>
      <path class="cls-2" d="M20.5,27.1h-1.6v-2c0-.5-.4-.9-.9-.9s-.9.4-.9.9v2h-1.6c-.4,0-.6.5-.3.8l2.5,2.5c.2.2.5.2.6,0l2.5-2.5c.3-.3,0-.8-.3-.8Z"/>
      <path class="cls-2" d="M18,10c.5,0,.9-.4.9-.9v-2.7c0-.5-.4-.9-.9-.9s-.9.4-.9.9v2.7c0,.5.4.9.9.9Z"/>
      <path class="cls-1" d="M18,2h0c8.8,0,16,7.2,16,16h0c0,8.8-7.2,16-16,16h0c-8.8,0-16-7.2-16-16h0C2,9.2,9.2,2,18,2Z"/>
    </g>
  </g>
</svg>