<?xml version="1.0" encoding="UTF-8"?>
<svg xmlns="http://www.w3.org/2000/svg" version="1.1" viewBox="0 0 36 36">
  <defs>
    <style>
      .cls-1 {
        fill: none;
        stroke: #000;
        stroke-width: 2px;
      }

      .cls-2 {
        fill-rule: evenodd;
      }
    </style>
  </defs>
  <!-- Generator: Adobe Illustrator 28.7.10, SVG Export Plug-In . SVG Version: 1.2.0 Build 236)  -->
  <g>
    <g id="Layer_1">
      <path class="cls-2" d="M17.7,18.8c.2.2.5.2.6,0l2.5-2.5c.3-.3,0-.8-.3-.8h-1.6V6.2c0-.5-.4-.9-.9-.9s-.9.4-.9.9v9.3h-1.6c-.4,0-.6.5-.3.8l2.5,2.6h0Z"/>
      <path d="M26,19v-1h-1v1h1ZM25.7,21l-1-.2-.3,1.2h1.3v-1ZM34,19h1v-1h-1v1ZM2,19v-1h-1v1h1ZM10,19h1v-1h-1v1ZM10.3,21v1h1.3l-.3-1.2-1,.2ZM4,21v-1h-1v1h1ZM32,21h1v-1h-1v1ZM25,19c0,.6,0,1.2-.2,1.8l1.9.5c.2-.7.3-1.5.3-2.2h-2,0ZM26,20h6v-2h-6v2ZM32,20h2v-2h-2v2ZM33,19v2h2v-2h-2ZM33,21v9h2v-9h-2ZM33,30c0,1.7-1.3,3-3,3v2c2.8,0,5-2.2,5-5h-2ZM30,33H6v2h24v-2ZM6,33c-1.7,0-3-1.3-3-3H1c0,2.8,2.2,5,5,5v-2ZM3,30v-9H1v9h2ZM3,21v-2H1v2h2ZM2,20h2v-2h-2v2ZM4,20h6v-2h-6v2ZM11.2,20.8c-.1-.6-.2-1.1-.2-1.8h-2c0,.8,0,1.5.3,2.2l1.9-.5h0ZM10.3,20h-4.3v2h4.3v-2ZM6,20h-2v2h2v-2ZM3,21v2h2v-2h-2ZM3,23v7h2v-7h-2ZM3,30c0,1.7,1.3,3,3,3v-2c-.6,0-1-.4-1-1h-2ZM6,33h24v-2H6v2ZM30,33c1.7,0,3-1.3,3-3h-2c0,.6-.4,1-1,1v2ZM33,30v-7h-2v7h2ZM33,23v-2h-2v2h2ZM32,20h-2v2h2v-2ZM30,20h-4.3v2h4.3v-2Z"/>
      <path class="cls-1" d="M26,19c0,4.4-3.6,8-8,8s-8-3.6-8-8"/>
      <rect class="cls-1" x="3" y="3" width="30" height="30" rx="3" ry="3"/>
    </g>
  </g>
</svg>