<?xml version="1.0" encoding="UTF-8"?>
<svg xmlns="http://www.w3.org/2000/svg" version="1.1" viewBox="0 0 36 36">
  <defs>
    <style>
      .cls-1 {
        fill: none;
        stroke: #000;
        stroke-width: 2px;
      }

      .cls-2 {
        fill-rule: evenodd;
      }
    </style>
  </defs>
  <!-- Generator: Adobe Illustrator 28.7.10, SVG Export Plug-In . SVG Version: 1.2.0 Build 236)  -->
  <g>
    <g id="Layer_1">
      <g id="Layer_1-2" data-name="Layer_1">
        <path class="cls-1" d="M31.9,8.9L19,1.5c-.6-.4-1.4-.4-2,0l-12.9,7.4c-.6.4-1,1-1,1.7v14.8c0,.7.4,1.4,1,1.7l12.9,7.4c.6.4,1.4.4,2,0l12.9-7.4c.6-.4,1-1,1-1.7v-14.8c0-.7-.4-1.4-1-1.7Z"/>
        <path class="cls-2" d="M10,12h12c.5,0,1,.4,1,1v3.5l3.1-3.1c.3-.3.9,0,.9.4v8.6c0,.4-.5.7-.9.4l-3.1-3.1v3.5c0,.5-.5,1-1,1h-12c-.6,0-1-.5-1-1v-10c0-.6.4-1,1-1,0,0,0-.2,0-.2ZM11,22h10v-8h-10v8Z"/>
      </g>
    </g>
  </g>
</svg>