<?xml version="1.0" encoding="UTF-8"?>
<svg xmlns="http://www.w3.org/2000/svg" version="1.1" viewBox="0 0 36 36">
  <defs>
    <style>
      .cls-1 {
        fill: none;
        stroke: #000;
        stroke-width: 2px;
      }

      .cls-2 {
        fill-rule: evenodd;
      }
    </style>
  </defs>
  <!-- Generator: Adobe Illustrator 28.7.10, SVG Export Plug-In . SVG Version: 1.2.0 Build 236)  -->
  <g>
    <g id="Layer_1">
      <path class="cls-2" d="M14.5,23.3h7v-5.7h-7v5.7ZM16,14.9c0-.5.2-1.1.6-1.4.4-.4.9-.6,1.4-.6s1.1.2,1.4.6c.4.4.6.9.6,1.4v1h-4.1v-1h.1ZM22.4,15.9h-.6v-1c0-.5-.1-1-.3-1.5-.2-.5-.5-.9-.8-1.2s-.8-.6-1.2-.8c-.2,0-.4-.1-.6-.2h0v-4.5c0-.5-.4-.9-.9-.9s-.9.4-.9.9v4.4h0c-.2.1-.4.2-.6.3-.5.2-.9.5-1.2.8s-.6.8-.8,1.2c-.2.5-.3,1-.3,1.5v1h-.6c-.5,0-.9.4-.9.9v7.4c0,.5.4.9.9.9h3.5v1.8h-1.6c-.4,0-.6.5-.3.7l2.4,2.4c.2.2.4.2.6,0l2.4-2.4c.3-.3,0-.8-.3-.8h-1.6v-1.8h3.5c.5,0,.9-.4.9-.9v-7.4c0-.5-.4-.9-.9-.9h.2Z"/>
      <path class="cls-1" d="M18,2h0c8.8,0,16,7.2,16,16h0c0,8.8-7.2,16-16,16h0c-8.8,0-16-7.2-16-16h0C2,9.2,9.2,2,18,2Z"/>
    </g>
  </g>
</svg>