<?xml version="1.0" encoding="UTF-8"?>
<svg xmlns="http://www.w3.org/2000/svg" version="1.1" viewBox="0 0 32 36">
  <defs>
    <style>
      .cls-1 {
        fill: none;
        stroke: #000;
        stroke-width: 2px;
      }
    </style>
  </defs>
  <!-- Generator: Adobe Illustrator 28.7.10, SVG Export Plug-In . SVG Version: 1.2.0 Build 236)  -->
  <g>
    <g id="Layer_1">
      <path class="cls-1" d="M17,1.4c-.6-.4-1.4-.4-2,0L2.1,8.8c-.6.4-1,1-1,1.7v14.8c0,.7.4,1.4,1,1.7l12.9,7.4c.6.4,1.4.4,2,0l12.9-7.4c.6-.4,1-1,1-1.7v-14.8c0-.7-.4-1.4-1-1.7L17,1.4Z"/>
      <path d="M15.5,27c-1.4,0-2.7-.3-4-.8s-2.4-1.3-3.4-2.3l1.3-1.3c.8.8,1.7,1.4,2.8,1.9,1,.4,2.1.6,3.3.6s2.2-.2,3.2-.6,1.9-1,2.8-1.8l1.3,1.3c-1,1-2.1,1.7-3.4,2.3-1.3.5-2.6.8-4,.8h.1ZM15.5,23.2c-.9,0-1.7-.2-2.5-.5s-1.5-.8-2.1-1.4l1.3-1.3c.5.5,1,.8,1.5,1,.6.2,1.2.3,1.8.3s1.2-.1,1.8-.3c.6-.2,1.1-.6,1.5-1l1.3,1.3c-.6.6-1.3,1.1-2.1,1.4-.8.3-1.6.5-2.5.5ZM8.9,11.9v.9h13.2v-.9s-13.2,0-13.2,0ZM11.8,14.7l.3.9h6.8l.3-.9h-7.4ZM12.1,17.6c-.4,0-.8-.1-1.1-.4-.3-.2-.6-.6-.7-1l-.5-1.5h-.9c-.5,0-1-.2-1.3-.6-.4-.4-.6-.8-.6-1.3v-2.8h17v2.8c0,.5-.2,1-.6,1.3-.4.4-.8.6-1.3.6h-.9l-.6,1.6c-.1.4-.4.7-.7.9-.3.2-.7.3-1.1.3h-6.7,0Z"/>
    </g>
  </g>
</svg>