<?xml version="1.0" encoding="UTF-8"?>
<svg xmlns="http://www.w3.org/2000/svg" version="1.1" viewBox="0 0 36 36">
  <defs>
    <style>
      .cls-1 {
        fill: none;
        stroke: #000;
        stroke-width: 2px;
      }
    </style>
  </defs>
  <!-- Generator: Adobe Illustrator 28.7.10, SVG Export Plug-In . SVG Version: 1.2.0 Build 236)  -->
  <g>
    <g id="Layer_1">
      <path class="cls-1" d="M31.9,8.8L19,1.4c-.6-.4-1.4-.4-2,0l-12.9,7.4c-.6.4-1,1-1,1.7v14.8c0,.7.4,1.4,1,1.7l12.9,7.6c.6.4,1.4.4,2,0l12.9-7.4c.6-.4,1-1,1-1.7v-14.9c0-.7-.4-1.4-1-1.8Z"/>
      <path d="M9,13.5v-2.9c0-.4.2-.8.5-1.1s.7-.5,1.1-.5h2.9v1.6h-2.9v2.9h-1.6ZM13.5,27h-2.9c-.4,0-.8-.2-1.1-.5s-.5-.7-.5-1.1v-2.9h1.6v2.9h2.9v1.6ZM22.5,27v-1.6h2.9v-2.9h1.6v2.9c0,.4-.2.8-.5,1.1-.3.3-.7.5-1.1.5h-2.9ZM25.4,13.5v-2.9h-2.9v-1.6h2.9c.4,0,.8.2,1.1.5.3.3.5.7.5,1.1v2.9h-1.6ZM19.3,15.4c-.5,0-.9-.2-1.2-.5-.3-.3-.5-.7-.5-1.2s.2-.9.5-1.2.7-.5,1.2-.5.9.2,1.2.5c.3.3.5.7.5,1.2s-.2.9-.5,1.2-.7.5-1.2.5ZM18.5,23.2h-3.4l1-4.9-1.9.9v2.9h-1.6v-3.9l3.6-1.5c.5-.2.9-.4,1.1-.4.2-.1.4-.1.7-.1s.6.1.8.2c.2.1.5.3.6.6l.9,1.5c.4.6.9,1.2,1.5,1.6s1.4.6,2.2.6v1.6c-1.1,0-1.9-.2-2.7-.6-.7-.4-1.4-1.1-2-1.9,0,0-.8,3.4-.8,3.4Z"/>
    </g>
  </g>
</svg>