<?xml version="1.0" encoding="UTF-8"?>
<svg xmlns="http://www.w3.org/2000/svg" version="1.1" xmlns:xlink="http://www.w3.org/1999/xlink" viewBox="0 0 36 36">
  <defs>
    <style>
      .cls-1 {
        fill: none;
        stroke: #000;
        stroke-width: 2px;
      }

      .cls-2 {
        mask: url(#mask-1);
      }

      .cls-3 {
        mask: url(#mask);
      }

      .cls-4 {
        fill: #fff;
      }

      .cls-4, .cls-5 {
        fill-rule: evenodd;
      }
    </style>
    <mask id="mask" x="9" y="9.8" width="16.9" height="16.9" maskUnits="userSpaceOnUse">
      <g id="mask0">
        <path class="cls-4" d="M9,9.8h16.9v16.9H9V9.8Z"/>
      </g>
    </mask>
    <mask id="mask-1" x="16.9" y="10.6" width="10" height="10" maskUnits="userSpaceOnUse">
      <g id="mask1">
        <path class="cls-4" d="M16.9,10.6h10v10h-10v-10Z"/>
      </g>
    </mask>
  </defs>
  <!-- Generator: Adobe Illustrator 28.7.10, SVG Export Plug-In . SVG Version: 1.2.0 Build 236)  -->
  <g>
    <g id="Layer_1">
      <path class="cls-1" d="M31.9,8.8L19,1.4c-.6-.4-1.4-.4-2,0l-12.9,7.4c-.6.4-1,1-1,1.7v14.8c0,.7.4,1.4,1,1.7l12.9,7.4c.6.4,1.4.4,2,0l12.9-7.4c.6-.4,1-1,1-1.7v-14.8c0-.7-.4-1.4-1-1.7Z"/>
      <g class="cls-3">
        <path class="cls-5" d="M10,9.8c-.5,0-1,.4-1,1v14.9c0,.6.4,1,1,1h14.9c.9,0,1.3-1.1.7-1.7l-14.9-14.9c-.2-.2-.5-.3-.7-.3ZM12.5,16.8l6.4,6.4h-6.4v-6.4Z"/>
      </g>
      <g class="cls-2">
        <path class="cls-5" d="M25.9,17.6l1,2.9c0,0,0,.2-.1.1l-2.9-1c-.2,0-.3-.1-.4-.3l-6.6-6.6,2.2-2.2,6.6,6.6c.1.1.2.3.3.4Z"/>
      </g>
      <path class="cls-5" d="M15.8,9.5c-.6.6-.6,1.6,0,2.2l.4.4,2.2-2.2-.4-.4c-.6-.6-1.6-.6-2.2,0Z"/>
    </g>
  </g>
</svg>