<?xml version="1.0" encoding="UTF-8"?>
<svg xmlns="http://www.w3.org/2000/svg" version="1.1" xmlns:xlink="http://www.w3.org/1999/xlink" viewBox="0 0 36 36">
  <defs>
    <style>
      .cls-1 {
        fill: none;
        stroke: #000;
        stroke-width: 2px;
      }

      .cls-2 {
        mask: url(#mask);
      }

      .cls-3 {
        fill: #fff;
      }

      .cls-3, .cls-4 {
        fill-rule: evenodd;
      }
    </style>
    <mask id="mask" x="9" y="8" width="18" height="20" maskUnits="userSpaceOnUse">
      <g id="mask0">
        <path class="cls-3" d="M9,8h18v20H9V8Z"/>
      </g>
    </mask>
  </defs>
  <!-- Generator: Adobe Illustrator 28.7.10, SVG Export Plug-In . SVG Version: 1.2.0 Build 236)  -->
  <g>
    <g id="Layer_1">
      <path class="cls-1" d="M31.9,8.8L19,1.4c-.6-.4-1.4-.4-2,0l-12.9,7.4c-.6.4-1,1-1,1.7v14.8c0,.7.4,1.4,1,1.7l12.9,7.4c.6.4,1.4.4,2,0l12.9-7.4c.6-.4,1-1,1-1.7v-14.8c0-.7-.4-1.4-1-1.7Z"/>
      <g class="cls-2">
        <path class="cls-4" d="M26,20.5h-8c-.6,0-1,.4-1,1v.5c0,.6.4,1,1,1h2c0,0-.2.1-.3.2-.8.5-1.7.7-2.6.7s-1.3-.1-1.9-.4c-.6-.2-1.1-.6-1.6-1.1-.5-.5-.8-1-1.1-1.6-.3-.6-.4-1.3-.4-1.9,0-1.4.6-2.7,1.6-3.6l1.3,1.3c.4.4,1,.4,1.4,0l1.2-1.2c.4-.4.4-1,0-1.4l-5.7-5.7c-.4-.4-1-.4-1.4,0l-1.2,1.2c-.4.4-.4,1,0,1.4l2.2,2.2c-.6.6-1.1,1.2-1.5,2-.3.6-.6,1.2-.7,1.9-.2.7-.3,1.3-.3,2,0,1.1.2,2.1.6,3.1.4,1,1,1.8,1.7,2.6.3.3.6.6.9.8h-2.1c-.6,0-1,.5-1,1v.5c0,.6.4,1,1,1h13.1c.6,0,1-.4,1-1v-.5c0-.6-.5-1-1-1h-1.4c.9-.7,1.7-1.5,2.2-2.5h1.9c.6,0,1-.4,1-1v-.5c0-.6-.4-1-1-1Z"/>
      </g>
    </g>
  </g>
</svg>