<?xml version="1.0" encoding="UTF-8"?>
<svg xmlns="http://www.w3.org/2000/svg" version="1.1" viewBox="0 0 36 36">
  <defs>
    <style>
      .cls-1 {
        fill: none;
        stroke: #000;
        stroke-width: 2px;
      }

      .cls-2 {
        fill-rule: evenodd;
      }
    </style>
  </defs>
  <!-- Generator: Adobe Illustrator 28.7.10, SVG Export Plug-In . SVG Version: 1.2.0 Build 236)  -->
  <g>
    <g id="Layer_1">
      <path class="cls-2" d="M18,29.6c-.5,0-.9-.4-.9-.9v-2.7c0-.5.4-.9.9-.9s.9.4.9.9v2.7c0,.5-.4.9-.9.9Z"/>
      <path class="cls-2" d="M17.1,27.1h-1.6c-.4,0-.6.5-.3.8l2.5,2.5c.2.2.5.2.6,0l2.5-2.5c.3-.3,0-.8-.3-.8h-1.6"/>
      <path class="cls-2" d="M16.7,23.3c-.2,0-.4,0-.6-.2l-4.4-3.6c-.4-.3-.4-.9-.1-1.2.3-.4.9-.4,1.2-.1l3.7,3,6.6-9.9c.3-.4.8-.5,1.2-.2.4.3.5.8.2,1.2l-7.1,10.7c-.1.2-.4.3-.6.4h-.1Z"/>
      <path class="cls-2" d="M18,10.9c-.5,0-.9-.4-.9-.9v-3.6c0-.5.4-.9.9-.9s.9.4.9.9v3.6c0,.5-.4.9-.9.9Z"/>
      <path class="cls-1" d="M18,2h0c8.8,0,16,7.2,16,16h0c0,8.8-7.2,16-16,16h0c-8.8,0-16-7.2-16-16h0C2,9.2,9.2,2,18,2Z"/>
    </g>
  </g>
</svg>